{
  "asset": {
    "generator": "glTF-Transform v4.5.1",
    "version": "2.0"
  },
  "accessors": [
    {
      "type": "SCALAR",
      "componentType": 5123,
      "count": 1680,
      "bufferView": 0,
      "byteOffset": 0
    },
    {
      "type": "SCALAR",
      "componentType": 5123,
      "count": 2070,
      "bufferView": 0,
      "byteOffset": 3360
    },
    {
      "type": "VEC4",
      "componentType": 5126,
      "count": 488,
      "bufferView": 1,
      "byteOffset": 0
    },
    {
      "type": "VEC3",
      "componentType": 5126,
      "count": 488,
      "max": [
        1.2581526041030884,
        6.483748912811279,
        1.3508447408676147
      ],
      "min": [
        -1.3496251106262207,
        -0.24277201294898987,
        -1.1245146989822388
      ],
      "bufferView": 1,
      "byteOffset": 16
    },
    {
      "type": "VEC2",
      "componentType": 5126,
      "count": 488,
      "bufferView": 1,
      "byteOffset": 28
    },
    {
      "type": "VEC3",
      "componentType": 5126,
      "count": 488,
      "bufferView": 1,
      "byteOffset": 36
    },
    {
      "type": "VEC4",
      "componentType": 5126,
      "count": 1426,
      "bufferView": 2,
      "byteOffset": 0
    },
    {
      "type": "VEC3",
      "componentType": 5126,
      "count": 1426,
      "max": [
        1.940803050994873,
        6.9564127922058105,
        2.0949769020080566
      ],
      "min": [
        -2.0013694763183594,
        2.3466193675994873,
        -1.848102331161499
      ],
      "bufferView": 2,
      "byteOffset": 16
    },
    {
      "type": "VEC2",
      "componentType": 5126,
      "count": 1426,
      "bufferView": 2,
      "byteOffset": 28
    },
    {
      "type": "VEC3",
      "componentType": 5126,
      "count": 1426,
      "bufferView": 2,
      "byteOffset": 36
    }
  ],
  "bufferViews": [
    {
      "buffer": 0,
      "byteOffset": 0,
      "byteLength": 7500,
      "target": 34963
    },
    {
      "buffer": 0,
      "byteOffset": 7500,
      "byteLength": 23424,
      "byteStride": 48,
      "target": 34962
    },
    {
      "buffer": 0,
      "byteOffset": 30924,
      "byteLength": 68448,
      "byteStride": 48,
      "target": 34962
    }
  ],
  "samplers": [
    {
      "magFilter": 9729,
      "minFilter": 9987,
      "wrapS": 10497,
      "wrapT": 10497
    }
  ],
  "textures": [
    {
      "source": 0,
      "sampler": 0
    },
    {
      "source": 1,
      "sampler": 0
    }
  ],
  "images": [
    {
      "name": "Bark_NormalTree",
      "mimeType": "image/png",
      "uri": "Bark_NormalTree.png"
    },
    {
      "name": "Leaves_NormalTree_C",
      "mimeType": "image/png",
      "uri": "Leaves_NormalTree_C.png"
    }
  ],
  "buffers": [
    {
      "uri": "CommonTree_1_far.bin",
      "byteLength": 99372
    }
  ],
  "materials": [
    {
      "name": "Bark_NormalTree",
      "alphaMode": "MASK",
      "alphaCutoff": 0.20000000298023224,
      "doubleSided": true,
      "pbrMetallicRoughness": {
        "metallicFactor": 0,
        "baseColorTexture": {
          "index": 0
        }
      }
    },
    {
      "name": "Leaves_NormalTree",
      "alphaMode": "MASK",
      "alphaCutoff": 0.20000000298023224,
      "doubleSided": true,
      "pbrMetallicRoughness": {
        "metallicFactor": 0,
        "baseColorTexture": {
          "index": 1
        }
      }
    }
  ],
  "meshes": [
    {
      "name": "tree.023",
      "primitives": [
        {
          "attributes": {
            "COLOR_0": 2,
            "POSITION": 3,
            "TEXCOORD_0": 4,
            "NORMAL": 5
          },
          "mode": 4,
          "material": 0,
          "indices": 0
        },
        {
          "attributes": {
            "COLOR_0": 6,
            "POSITION": 7,
            "TEXCOORD_0": 8,
            "NORMAL": 9
          },
          "mode": 4,
          "material": 1,
          "indices": 1
        }
      ]
    }
  ],
  "nodes": [
    {
      "name": "CommonTree_1",
      "mesh": 0
    }
  ],
  "scenes": [
    {
      "name": "Scene",
      "nodes": [
        0
      ]
    }
  ],
  "scene": 0
}