{
  "asset": {
    "generator": "glTF-Transform v4.5.1",
    "version": "2.0"
  },
  "accessors": [
    {
      "type": "SCALAR",
      "componentType": 5123,
      "count": 1938,
      "bufferView": 0,
      "byteOffset": 0
    },
    {
      "type": "VEC4",
      "componentType": 5126,
      "count": 668,
      "bufferView": 1,
      "byteOffset": 0
    },
    {
      "type": "VEC3",
      "componentType": 5126,
      "count": 668,
      "max": [
        3.5337250232696533,
        9.150209426879883,
        2.8320229053497314
      ],
      "min": [
        -2.587430715560913,
        -0.3355545997619629,
        -2.883410692214966
      ],
      "bufferView": 1,
      "byteOffset": 16
    },
    {
      "type": "VEC2",
      "componentType": 5126,
      "count": 668,
      "bufferView": 1,
      "byteOffset": 28
    },
    {
      "type": "VEC3",
      "componentType": 5126,
      "count": 668,
      "bufferView": 1,
      "byteOffset": 36
    }
  ],
  "bufferViews": [
    {
      "buffer": 0,
      "byteOffset": 0,
      "byteLength": 3876,
      "target": 34963
    },
    {
      "buffer": 0,
      "byteOffset": 3876,
      "byteLength": 32064,
      "byteStride": 48,
      "target": 34962
    }
  ],
  "samplers": [
    {
      "magFilter": 9729,
      "minFilter": 9987,
      "wrapS": 10497,
      "wrapT": 10497
    }
  ],
  "textures": [
    {
      "source": 0,
      "sampler": 0
    }
  ],
  "images": [
    {
      "name": "Bark_DeadTree",
      "mimeType": "image/png",
      "uri": "Bark_DeadTree.png"
    }
  ],
  "buffers": [
    {
      "uri": "DeadTree_1_far.bin",
      "byteLength": 35940
    }
  ],
  "materials": [
    {
      "name": "Bark_DeadTree",
      "doubleSided": true,
      "pbrMetallicRoughness": {
        "metallicFactor": 0,
        "baseColorTexture": {
          "index": 0
        }
      }
    }
  ],
  "meshes": [
    {
      "name": "tree",
      "primitives": [
        {
          "attributes": {
            "COLOR_0": 1,
            "POSITION": 2,
            "TEXCOORD_0": 3,
            "NORMAL": 4
          },
          "mode": 4,
          "material": 0,
          "indices": 0
        }
      ]
    }
  ],
  "nodes": [
    {
      "name": "DeadTree_1",
      "mesh": 0
    }
  ],
  "scenes": [
    {
      "name": "Scene",
      "nodes": [
        0
      ]
    }
  ],
  "scene": 0
}