{
  "asset": {
    "generator": "glTF-Transform v4.5.1",
    "version": "2.0"
  },
  "accessors": [
    {
      "type": "SCALAR",
      "componentType": 5123,
      "count": 264,
      "bufferView": 0,
      "byteOffset": 0
    },
    {
      "type": "SCALAR",
      "componentType": 5123,
      "count": 792,
      "bufferView": 0,
      "byteOffset": 528
    },
    {
      "type": "VEC4",
      "componentType": 5123,
      "count": 62,
      "normalized": true,
      "bufferView": 1,
      "byteOffset": 0
    },
    {
      "type": "VEC3",
      "componentType": 5126,
      "count": 62,
      "max": [
        0.56728196144104,
        2.2943310737609863,
        0.21159152686595917
      ],
      "min": [
        -0.5050064325332642,
        -0.03043048270046711,
        -0.3631875216960907
      ],
      "bufferView": 1,
      "byteOffset": 8
    },
    {
      "type": "VEC2",
      "componentType": 5126,
      "count": 62,
      "bufferView": 1,
      "byteOffset": 20
    },
    {
      "type": "VEC3",
      "componentType": 5126,
      "count": 62,
      "bufferView": 1,
      "byteOffset": 28
    },
    {
      "type": "VEC4",
      "componentType": 5123,
      "count": 224,
      "normalized": true,
      "bufferView": 2,
      "byteOffset": 0
    },
    {
      "type": "VEC3",
      "componentType": 5126,
      "count": 224,
      "max": [
        0.3805691599845886,
        2.388728618621826,
        0.37106218934059143
      ],
      "min": [
        -0.39627349376678467,
        1.1264549493789673,
        -0.40180256962776184
      ],
      "bufferView": 2,
      "byteOffset": 8
    },
    {
      "type": "VEC2",
      "componentType": 5126,
      "count": 224,
      "bufferView": 2,
      "byteOffset": 20
    },
    {
      "type": "VEC3",
      "componentType": 5126,
      "count": 224,
      "bufferView": 2,
      "byteOffset": 28
    }
  ],
  "bufferViews": [
    {
      "buffer": 0,
      "byteOffset": 0,
      "byteLength": 2112,
      "target": 34963
    },
    {
      "buffer": 0,
      "byteOffset": 2112,
      "byteLength": 2480,
      "byteStride": 40,
      "target": 34962
    },
    {
      "buffer": 0,
      "byteOffset": 4592,
      "byteLength": 8960,
      "byteStride": 40,
      "target": 34962
    }
  ],
  "samplers": [
    {
      "magFilter": 9729,
      "minFilter": 9987,
      "wrapS": 10497,
      "wrapT": 10497
    }
  ],
  "textures": [
    {
      "source": 0,
      "sampler": 0
    },
    {
      "source": 1,
      "sampler": 0
    }
  ],
  "images": [
    {
      "name": "Leaves",
      "mimeType": "image/png",
      "uri": "Leaves.png"
    },
    {
      "name": "Flowers",
      "mimeType": "image/png",
      "uri": "Flowers.png"
    }
  ],
  "buffers": [
    {
      "uri": "Flower_4_Single.bin",
      "byteLength": 13552
    }
  ],
  "materials": [
    {
      "name": "Leaves",
      "alphaMode": "MASK",
      "alphaCutoff": 0.20000000298023224,
      "doubleSided": true,
      "pbrMetallicRoughness": {
        "metallicFactor": 0,
        "baseColorTexture": {
          "index": 0
        }
      }
    },
    {
      "name": "Flowers",
      "alphaMode": "MASK",
      "alphaCutoff": 0.20000000298023224,
      "doubleSided": true,
      "pbrMetallicRoughness": {
        "metallicFactor": 0,
        "baseColorTexture": {
          "index": 1
        }
      }
    }
  ],
  "meshes": [
    {
      "name": "Plane.001",
      "primitives": [
        {
          "attributes": {
            "COLOR_0": 2,
            "POSITION": 3,
            "TEXCOORD_0": 4,
            "NORMAL": 5
          },
          "mode": 4,
          "material": 0,
          "indices": 0
        },
        {
          "attributes": {
            "COLOR_0": 6,
            "POSITION": 7,
            "TEXCOORD_0": 8,
            "NORMAL": 9
          },
          "mode": 4,
          "material": 1,
          "indices": 1
        }
      ]
    }
  ],
  "nodes": [
    {
      "name": "Flower_4_Single",
      "mesh": 0
    }
  ],
  "scenes": [
    {
      "name": "Scene",
      "nodes": [
        0
      ]
    }
  ],
  "scene": 0
}