{
  "asset": {
    "generator": "glTF-Transform v4.5.1",
    "version": "2.0"
  },
  "accessors": [
    {
      "type": "SCALAR",
      "componentType": 5123,
      "count": 741,
      "bufferView": 0,
      "byteOffset": 0
    },
    {
      "type": "VEC4",
      "componentType": 5123,
      "count": 254,
      "normalized": true,
      "bufferView": 1,
      "byteOffset": 0
    },
    {
      "type": "VEC3",
      "componentType": 5126,
      "count": 254,
      "max": [
        0.5941424369812012,
        0.9860967993736267,
        0.6269333362579346
      ],
      "min": [
        -0.7280435562133789,
        -0.08575008809566498,
        -0.5828109979629517
      ],
      "bufferView": 1,
      "byteOffset": 8
    },
    {
      "type": "VEC2",
      "componentType": 5126,
      "count": 254,
      "bufferView": 1,
      "byteOffset": 20
    },
    {
      "type": "VEC3",
      "componentType": 5126,
      "count": 254,
      "bufferView": 1,
      "byteOffset": 28
    }
  ],
  "bufferViews": [
    {
      "buffer": 0,
      "byteOffset": 0,
      "byteLength": 1484,
      "target": 34963
    },
    {
      "buffer": 0,
      "byteOffset": 1484,
      "byteLength": 10160,
      "byteStride": 40,
      "target": 34962
    }
  ],
  "samplers": [
    {
      "magFilter": 9729,
      "minFilter": 9987,
      "wrapS": 10497,
      "wrapT": 10497
    }
  ],
  "textures": [
    {
      "source": 0,
      "sampler": 0
    }
  ],
  "images": [
    {
      "name": "Grass",
      "mimeType": "image/png",
      "uri": "Grass.png"
    }
  ],
  "buffers": [
    {
      "uri": "Grass_Wispy_Short.bin",
      "byteLength": 11644
    }
  ],
  "materials": [
    {
      "name": "Grass",
      "doubleSided": true,
      "pbrMetallicRoughness": {
        "metallicFactor": 0,
        "baseColorTexture": {
          "index": 0
        }
      }
    }
  ],
  "meshes": [
    {
      "name": "Plane.033",
      "primitives": [
        {
          "attributes": {
            "COLOR_0": 1,
            "POSITION": 2,
            "TEXCOORD_0": 3,
            "NORMAL": 4
          },
          "mode": 4,
          "material": 0,
          "indices": 0
        }
      ]
    }
  ],
  "nodes": [
    {
      "name": "Grass_Wispy_Short",
      "mesh": 0
    }
  ],
  "scenes": [
    {
      "name": "Scene",
      "nodes": [
        0
      ]
    }
  ],
  "scene": 0
}