{
  "asset": {
    "generator": "glTF-Transform v4.5.1",
    "version": "2.0"
  },
  "accessors": [
    {
      "type": "SCALAR",
      "componentType": 5123,
      "count": 6372,
      "bufferView": 0,
      "byteOffset": 0
    },
    {
      "type": "SCALAR",
      "componentType": 5123,
      "count": 6270,
      "bufferView": 0,
      "byteOffset": 12744
    },
    {
      "type": "VEC4",
      "componentType": 5126,
      "count": 1596,
      "bufferView": 1,
      "byteOffset": 0
    },
    {
      "type": "VEC3",
      "componentType": 5126,
      "count": 1596,
      "max": [
        4.430212020874023,
        14.353582382202148,
        1.6410000324249268
      ],
      "min": [
        -2.2728946208953857,
        -0.20147468149662018,
        -5.161355018615723
      ],
      "bufferView": 1,
      "byteOffset": 16
    },
    {
      "type": "VEC2",
      "componentType": 5126,
      "count": 1596,
      "bufferView": 1,
      "byteOffset": 28
    },
    {
      "type": "VEC3",
      "componentType": 5126,
      "count": 1596,
      "bufferView": 1,
      "byteOffset": 36
    },
    {
      "type": "VEC4",
      "componentType": 5126,
      "count": 4242,
      "bufferView": 2,
      "byteOffset": 0
    },
    {
      "type": "VEC3",
      "componentType": 5126,
      "count": 4242,
      "max": [
        5.748274803161621,
        15.322052955627441,
        3.0480315685272217
      ],
      "min": [
        -3.7464373111724854,
        5.0873823165893555,
        -6.247550964355469
      ],
      "bufferView": 2,
      "byteOffset": 16
    },
    {
      "type": "VEC2",
      "componentType": 5126,
      "count": 4242,
      "bufferView": 2,
      "byteOffset": 28
    },
    {
      "type": "VEC3",
      "componentType": 5126,
      "count": 4242,
      "bufferView": 2,
      "byteOffset": 36
    }
  ],
  "bufferViews": [
    {
      "buffer": 0,
      "byteOffset": 0,
      "byteLength": 25284,
      "target": 34963
    },
    {
      "buffer": 0,
      "byteOffset": 25284,
      "byteLength": 76608,
      "byteStride": 48,
      "target": 34962
    },
    {
      "buffer": 0,
      "byteOffset": 101892,
      "byteLength": 203616,
      "byteStride": 48,
      "target": 34962
    }
  ],
  "samplers": [
    {
      "magFilter": 9729,
      "minFilter": 9987,
      "wrapS": 10497,
      "wrapT": 10497
    }
  ],
  "textures": [
    {
      "source": 0,
      "sampler": 0
    },
    {
      "source": 1,
      "sampler": 0
    }
  ],
  "images": [
    {
      "name": "Bark_TwistedTree",
      "mimeType": "image/png",
      "uri": "Bark_TwistedTree.png"
    },
    {
      "name": "Leaves_TwistedTree_C",
      "mimeType": "image/png",
      "uri": "Leaves_TwistedTree_C.png"
    }
  ],
  "buffers": [
    {
      "uri": "TwistedTree_5.bin",
      "byteLength": 305508
    }
  ],
  "materials": [
    {
      "name": "Bark_TwistedTree",
      "doubleSided": true,
      "pbrMetallicRoughness": {
        "metallicFactor": 0,
        "baseColorTexture": {
          "index": 0
        }
      }
    },
    {
      "name": "Leaves_TwistedTree",
      "alphaMode": "MASK",
      "alphaCutoff": 0.20000000298023224,
      "doubleSided": true,
      "pbrMetallicRoughness": {
        "metallicFactor": 0,
        "baseColorTexture": {
          "index": 1
        }
      }
    }
  ],
  "meshes": [
    {
      "name": "tree.042",
      "primitives": [
        {
          "attributes": {
            "COLOR_0": 2,
            "POSITION": 3,
            "TEXCOORD_0": 4,
            "NORMAL": 5
          },
          "mode": 4,
          "material": 0,
          "indices": 0
        },
        {
          "attributes": {
            "COLOR_0": 6,
            "POSITION": 7,
            "TEXCOORD_0": 8,
            "NORMAL": 9
          },
          "mode": 4,
          "material": 1,
          "indices": 1
        }
      ]
    }
  ],
  "nodes": [
    {
      "name": "TwistedTree_5",
      "mesh": 0
    }
  ],
  "scenes": [
    {
      "name": "Scene",
      "nodes": [
        0
      ]
    }
  ],
  "scene": 0
}